<svg version="1.1" id="Capa_1" xmlns="http://www.w3.org/2000/svg" xmlns:xlink="http://www.w3.org/1999/xlink" x="0px" y="0px" viewBox="0 0 24 24" style="enable-background:new 0 0 60.86 60.86;" xml:space="preserve" width="24" height="24"><g><g><path style="fill:#010002;" d="M12.543 10.908c0.474 0.258 1.274 0.063 1.365 -0.556 0.182 -1.25 0.401 -2.501 0.342 -3.77 -0.056 -1.193 -1.914 -1.198 -1.858 0 0.034 0.737 -0.03 1.462 -0.123 2.186 -0.765 -0.303 -1.53 -0.613 -2.085 -1.217 -0.154 -0.168 -0.326 -0.256 -0.498 -0.284 -0.487 -0.283 -1.206 -0.288 -1.687 0.04 -0.012 0.002 -0.022 0.002 -0.035 0.005 -1.196 0.287 -2.394 0.421 -3.623 0.431 -1.198 0.01 -1.199 1.868 0 1.858a18.534 18.534 0 0 0 2.391 -0.174c-0.608 1.17 -1.202 2.348 -1.748 3.548 -0.11 0.242 -0.151 0.469 -0.141 0.678a1.065 1.065 0 0 0 -0.087 0.331l-0.781 8.573c-0.12 1.316 1.922 1.503 2.042 0.187l0.534 -5.854q0.201 2.477 0.401 4.954c0.107 1.319 2.15 1.152 2.044 -0.166L8.301 13.113c0.544 -1.137 1.125 -2.256 1.714 -3.371 0.804 0.445 1.705 0.719 2.528 1.166"/><path style="fill:#010002;" cx="26.4" cy="12.11" r="4.369" d="M12.134 4.776A1.723 1.723 0 0 1 10.411 6.498A1.723 1.723 0 0 1 8.688 4.776A1.723 1.723 0 0 1 12.134 4.776z"/><path style="fill:#010002;" d="m14.968 4.083 5.589 -2.415 -0.151 -0.286a0.749 0.749 0 0 0 0.106 -0.386c0 -0.399 -0.305 -0.728 -0.71 -0.764L19.68 0 12.327 3.844l0.577 1.097 1.495 -0.62 -0.017 11.026 -3.79 8.32 0.423 0.192 3.367 -7.388 -0.01 6.704h-0.719v0.598h2v-0.598h-0.713l0.01 -6.769 3.086 7.593 0.43 -0.174 -3.514 -8.65z"/></g></g></svg>